<mxfile host="app.diagrams.net" modified="2024-05-22T03:57:33.581Z" agent="Mozilla/5.0 (Windows NT 10.0; Win64; x64) AppleWebKit/537.36 (KHTML, like Gecko) Chrome/122.0.0.0 YaBrowser/24.4.0.0 Safari/537.36" etag="EbkM_Kzak4aITQL5wFgh" version="24.4.4" type="device">
  <diagram name="Страница — 1" id="HisL__PoR1DTvs2xIMrA">
    <mxGraphModel dx="1143" dy="693" grid="1" gridSize="10" guides="1" tooltips="1" connect="1" arrows="1" fold="1" page="1" pageScale="1" pageWidth="827" pageHeight="1169" math="0" shadow="0">
      <root>
        <mxCell id="0" />
        <mxCell id="1" parent="0" />
        <mxCell id="NiBlPgQvJPjMPdxQ06dj-3" style="edgeStyle=orthogonalEdgeStyle;rounded=0;orthogonalLoop=1;jettySize=auto;html=1;exitX=0;exitY=0.5;exitDx=0;exitDy=0;entryX=1;entryY=0.5;entryDx=0;entryDy=0;" edge="1" parent="1" source="NiBlPgQvJPjMPdxQ06dj-1" target="NiBlPgQvJPjMPdxQ06dj-2">
          <mxGeometry relative="1" as="geometry" />
        </mxCell>
        <mxCell id="NiBlPgQvJPjMPdxQ06dj-12" style="edgeStyle=orthogonalEdgeStyle;rounded=0;orthogonalLoop=1;jettySize=auto;html=1;exitX=0.5;exitY=0;exitDx=0;exitDy=0;entryX=0.5;entryY=1;entryDx=0;entryDy=0;" edge="1" parent="1" source="NiBlPgQvJPjMPdxQ06dj-1" target="NiBlPgQvJPjMPdxQ06dj-7">
          <mxGeometry relative="1" as="geometry" />
        </mxCell>
        <mxCell id="NiBlPgQvJPjMPdxQ06dj-19" style="edgeStyle=orthogonalEdgeStyle;rounded=0;orthogonalLoop=1;jettySize=auto;html=1;exitX=1;exitY=0.5;exitDx=0;exitDy=0;entryX=0;entryY=0.5;entryDx=0;entryDy=0;" edge="1" parent="1" source="NiBlPgQvJPjMPdxQ06dj-1" target="NiBlPgQvJPjMPdxQ06dj-6">
          <mxGeometry relative="1" as="geometry" />
        </mxCell>
        <mxCell id="NiBlPgQvJPjMPdxQ06dj-1" value="Installer" style="rounded=0;whiteSpace=wrap;html=1;fontSize=14;fontFamily=Times New Roman;fontStyle=2" vertex="1" parent="1">
          <mxGeometry x="371" y="280" width="86" height="30" as="geometry" />
        </mxCell>
        <mxCell id="NiBlPgQvJPjMPdxQ06dj-25" style="edgeStyle=orthogonalEdgeStyle;rounded=0;orthogonalLoop=1;jettySize=auto;html=1;exitX=0.5;exitY=1;exitDx=0;exitDy=0;entryX=0;entryY=0.5;entryDx=0;entryDy=0;" edge="1" parent="1" source="NiBlPgQvJPjMPdxQ06dj-2" target="NiBlPgQvJPjMPdxQ06dj-8">
          <mxGeometry relative="1" as="geometry" />
        </mxCell>
        <mxCell id="NiBlPgQvJPjMPdxQ06dj-2" value="NPC" style="rounded=0;whiteSpace=wrap;html=1;fontSize=14;fontFamily=Times New Roman;fontStyle=2" vertex="1" parent="1">
          <mxGeometry x="180" y="280" width="86" height="30" as="geometry" />
        </mxCell>
        <mxCell id="NiBlPgQvJPjMPdxQ06dj-4" value="Inventory" style="rounded=0;whiteSpace=wrap;html=1;fontSize=14;fontFamily=Times New Roman;fontStyle=2" vertex="1" parent="1">
          <mxGeometry x="468" y="330" width="86" height="30" as="geometry" />
        </mxCell>
        <mxCell id="NiBlPgQvJPjMPdxQ06dj-5" value="ActiveInventory" style="rounded=0;whiteSpace=wrap;html=1;fontSize=14;fontFamily=Times New Roman;fontStyle=2" vertex="1" parent="1">
          <mxGeometry x="500" y="230" width="110" height="30" as="geometry" />
        </mxCell>
        <mxCell id="NiBlPgQvJPjMPdxQ06dj-6" value="Chest" style="rounded=0;whiteSpace=wrap;html=1;fontSize=14;fontFamily=Times New Roman;fontStyle=2" vertex="1" parent="1">
          <mxGeometry x="523" y="280" width="64" height="30" as="geometry" />
        </mxCell>
        <mxCell id="NiBlPgQvJPjMPdxQ06dj-7" value="Terrain" style="rounded=0;whiteSpace=wrap;html=1;fontSize=14;fontFamily=Times New Roman;fontStyle=2" vertex="1" parent="1">
          <mxGeometry x="382" y="210" width="64" height="30" as="geometry" />
        </mxCell>
        <mxCell id="NiBlPgQvJPjMPdxQ06dj-8" value="Chat" style="rounded=0;whiteSpace=wrap;html=1;fontSize=14;fontFamily=Times New Roman;fontStyle=2" vertex="1" parent="1">
          <mxGeometry x="254" y="330" width="64" height="30" as="geometry" />
        </mxCell>
        <mxCell id="NiBlPgQvJPjMPdxQ06dj-10" value="GameMenu" style="rounded=0;whiteSpace=wrap;html=1;fontSize=14;fontFamily=Times New Roman;fontStyle=2" vertex="1" parent="1">
          <mxGeometry x="400" y="370" width="80" height="30" as="geometry" />
        </mxCell>
        <mxCell id="NiBlPgQvJPjMPdxQ06dj-11" value="DayNight" style="rounded=0;whiteSpace=wrap;html=1;fontSize=14;fontFamily=Times New Roman;fontStyle=2" vertex="1" parent="1">
          <mxGeometry x="318" y="370" width="64" height="30" as="geometry" />
        </mxCell>
        <mxCell id="NiBlPgQvJPjMPdxQ06dj-14" value="" style="endArrow=classic;html=1;rounded=0;entryX=0;entryY=1;entryDx=0;entryDy=0;" edge="1" parent="1" target="NiBlPgQvJPjMPdxQ06dj-5">
          <mxGeometry width="50" height="50" relative="1" as="geometry">
            <mxPoint x="460" y="280" as="sourcePoint" />
            <mxPoint x="520" y="240" as="targetPoint" />
          </mxGeometry>
        </mxCell>
        <mxCell id="NiBlPgQvJPjMPdxQ06dj-16" value="" style="endArrow=classic;html=1;rounded=0;entryX=0;entryY=0;entryDx=0;entryDy=0;exitX=1;exitY=1;exitDx=0;exitDy=0;" edge="1" parent="1" source="NiBlPgQvJPjMPdxQ06dj-1" target="NiBlPgQvJPjMPdxQ06dj-4">
          <mxGeometry width="50" height="50" relative="1" as="geometry">
            <mxPoint x="400" y="380" as="sourcePoint" />
            <mxPoint x="450" y="330" as="targetPoint" />
          </mxGeometry>
        </mxCell>
        <mxCell id="NiBlPgQvJPjMPdxQ06dj-18" value="" style="endArrow=classic;html=1;rounded=0;entryX=1;entryY=0.5;entryDx=0;entryDy=0;exitX=0;exitY=0.25;exitDx=0;exitDy=0;" edge="1" parent="1" source="NiBlPgQvJPjMPdxQ06dj-5" target="NiBlPgQvJPjMPdxQ06dj-7">
          <mxGeometry width="50" height="50" relative="1" as="geometry">
            <mxPoint x="400" y="380" as="sourcePoint" />
            <mxPoint x="450" y="330" as="targetPoint" />
          </mxGeometry>
        </mxCell>
        <mxCell id="NiBlPgQvJPjMPdxQ06dj-20" value="TradePanel" style="rounded=0;whiteSpace=wrap;html=1;fontSize=14;fontFamily=Times New Roman;fontStyle=2" vertex="1" parent="1">
          <mxGeometry x="210" y="230" width="64" height="30" as="geometry" />
        </mxCell>
        <mxCell id="NiBlPgQvJPjMPdxQ06dj-21" value="" style="endArrow=classic;html=1;rounded=0;entryX=1;entryY=0.5;entryDx=0;entryDy=0;exitX=0;exitY=0;exitDx=0;exitDy=0;" edge="1" parent="1" source="NiBlPgQvJPjMPdxQ06dj-1" target="NiBlPgQvJPjMPdxQ06dj-20">
          <mxGeometry width="50" height="50" relative="1" as="geometry">
            <mxPoint x="400" y="380" as="sourcePoint" />
            <mxPoint x="450" y="330" as="targetPoint" />
          </mxGeometry>
        </mxCell>
        <mxCell id="NiBlPgQvJPjMPdxQ06dj-23" value="" style="endArrow=classic;html=1;rounded=0;entryX=1;entryY=0;entryDx=0;entryDy=0;exitX=0;exitY=1;exitDx=0;exitDy=0;" edge="1" parent="1" source="NiBlPgQvJPjMPdxQ06dj-1" target="NiBlPgQvJPjMPdxQ06dj-8">
          <mxGeometry width="50" height="50" relative="1" as="geometry">
            <mxPoint x="400" y="380" as="sourcePoint" />
            <mxPoint x="450" y="330" as="targetPoint" />
          </mxGeometry>
        </mxCell>
        <mxCell id="NiBlPgQvJPjMPdxQ06dj-32" style="edgeStyle=orthogonalEdgeStyle;rounded=0;orthogonalLoop=1;jettySize=auto;html=1;exitX=0.5;exitY=0;exitDx=0;exitDy=0;entryX=0;entryY=0.5;entryDx=0;entryDy=0;" edge="1" parent="1" source="NiBlPgQvJPjMPdxQ06dj-26" target="NiBlPgQvJPjMPdxQ06dj-27">
          <mxGeometry relative="1" as="geometry" />
        </mxCell>
        <mxCell id="NiBlPgQvJPjMPdxQ06dj-26" value="Player" style="rounded=0;whiteSpace=wrap;html=1;fontSize=14;fontFamily=Times New Roman;fontStyle=2" vertex="1" parent="1">
          <mxGeometry x="280" y="180" width="64" height="30" as="geometry" />
        </mxCell>
        <mxCell id="NiBlPgQvJPjMPdxQ06dj-31" style="edgeStyle=orthogonalEdgeStyle;rounded=0;orthogonalLoop=1;jettySize=auto;html=1;exitX=0;exitY=0.5;exitDx=0;exitDy=0;entryX=0.5;entryY=0;entryDx=0;entryDy=0;" edge="1" parent="1" source="NiBlPgQvJPjMPdxQ06dj-27" target="NiBlPgQvJPjMPdxQ06dj-26">
          <mxGeometry relative="1" as="geometry" />
        </mxCell>
        <mxCell id="NiBlPgQvJPjMPdxQ06dj-27" value="Marker" style="rounded=0;whiteSpace=wrap;html=1;fontSize=14;fontFamily=Times New Roman;fontStyle=2" vertex="1" parent="1">
          <mxGeometry x="360" y="140" width="64" height="30" as="geometry" />
        </mxCell>
        <mxCell id="NiBlPgQvJPjMPdxQ06dj-29" value="" style="endArrow=classic;html=1;rounded=0;entryX=1;entryY=0.5;entryDx=0;entryDy=0;exitX=0.25;exitY=0;exitDx=0;exitDy=0;" edge="1" parent="1" source="NiBlPgQvJPjMPdxQ06dj-1" target="NiBlPgQvJPjMPdxQ06dj-26">
          <mxGeometry width="50" height="50" relative="1" as="geometry">
            <mxPoint x="400" y="380" as="sourcePoint" />
            <mxPoint x="450" y="330" as="targetPoint" />
          </mxGeometry>
        </mxCell>
        <mxCell id="NiBlPgQvJPjMPdxQ06dj-33" style="edgeStyle=orthogonalEdgeStyle;rounded=0;orthogonalLoop=1;jettySize=auto;html=1;exitX=0.75;exitY=1;exitDx=0;exitDy=0;entryX=0.404;entryY=0;entryDx=0;entryDy=0;entryPerimeter=0;" edge="1" parent="1" source="NiBlPgQvJPjMPdxQ06dj-27" target="NiBlPgQvJPjMPdxQ06dj-7">
          <mxGeometry relative="1" as="geometry" />
        </mxCell>
        <mxCell id="NiBlPgQvJPjMPdxQ06dj-34" value="" style="endArrow=classic;html=1;rounded=0;entryX=0.5;entryY=0;entryDx=0;entryDy=0;exitX=0.25;exitY=1;exitDx=0;exitDy=0;" edge="1" parent="1" source="NiBlPgQvJPjMPdxQ06dj-1" target="NiBlPgQvJPjMPdxQ06dj-11">
          <mxGeometry width="50" height="50" relative="1" as="geometry">
            <mxPoint x="400" y="380" as="sourcePoint" />
            <mxPoint x="450" y="330" as="targetPoint" />
          </mxGeometry>
        </mxCell>
        <mxCell id="NiBlPgQvJPjMPdxQ06dj-36" style="edgeStyle=orthogonalEdgeStyle;rounded=0;orthogonalLoop=1;jettySize=auto;html=1;exitX=0.75;exitY=1;exitDx=0;exitDy=0;entryX=0.442;entryY=-0.072;entryDx=0;entryDy=0;entryPerimeter=0;" edge="1" parent="1" source="NiBlPgQvJPjMPdxQ06dj-1" target="NiBlPgQvJPjMPdxQ06dj-10">
          <mxGeometry relative="1" as="geometry" />
        </mxCell>
      </root>
    </mxGraphModel>
  </diagram>
</mxfile>
